# This file uses centimeters as units for non-parametric coordinates.

mtllib BigDoor.mtl
g default
v -6.505033 0.000000 0.105445
v 6.505033 0.000000 0.105445
v -6.505033 4.266224 0.105445
v 6.505033 4.266224 0.105445
v -6.505033 4.266224 -0.105443
v 6.505033 4.266224 -0.105443
v -6.505033 0.000000 -0.105443
v 6.505033 0.000000 -0.105443
vt 0.020441 0.339360
vt 0.979570 0.339394
vt 0.020430 0.653875
vt 0.979559 0.653909
vt 0.004899 0.004883
vt 0.964029 0.004931
vt 0.004884 0.319398
vt 0.964013 0.319446
vt 0.004883 0.334945
vt 0.964012 0.334993
vt 0.995117 0.339394
vt 0.995106 0.653909
vt 0.004894 0.339360
vt 0.004883 0.653875
vn 0.000000 0.000000 1.000000
vn 0.000000 0.000000 1.000000
vn 0.000000 0.000000 1.000000
vn 0.000000 0.000000 1.000000
vn 0.000000 0.000000 -1.000000
vn 0.000000 0.000000 -1.000000
vn 0.000000 0.000000 -1.000000
vn 0.000000 0.000000 -1.000000
vn 0.000000 -1.000000 0.000000
vn 0.000000 -1.000000 0.000000
vn 0.000000 -1.000000 0.000000
vn 0.000000 -1.000000 0.000000
vn 1.000000 0.000000 0.000000
vn 1.000000 0.000000 0.000000
vn 1.000000 0.000000 0.000000
vn 1.000000 0.000000 0.000000
vn -1.000000 0.000000 0.000000
vn -1.000000 0.000000 0.000000
vn -1.000000 0.000000 0.000000
vn -1.000000 0.000000 0.000000
s off
g BigDoor
usemtl initialShadingGroup
f 1/1/1 2/2/2 4/4/3 3/3/4
f 5/5/5 6/6/6 8/8/7 7/7/8
f 7/7/9 8/8/10 2/10/11 1/9/12
f 2/2/13 8/11/14 6/12/15 4/4/16
f 7/13/17 1/1/18 3/3/19 5/14/20
